HIERARCHY
ROOT hip
{
	OFFSET 0.000000 0.000000 0.000000 
	CHANNELS 6 Xposition Yposition Zposition Xrotation Zrotation Yrotation
	JOINT abdomen
	{
		OFFSET 0.000000 3.402643 0.000000 
		CHANNELS 3 Xrotation Zrotation Yrotation
		JOINT chest
		{
			OFFSET 0.000000 8.438565 -0.680529 
			CHANNELS 3 Xrotation Zrotation Yrotation
			JOINT neck
			{
				OFFSET 0.000000 10.207942 -0.272212 
				CHANNELS 3 Xrotation Zrotation Yrotation
				JOINT head
				{
					OFFSET 0.000000 3.130431 0.000000 
					CHANNELS 3 Xrotation Zrotation Yrotation
					End Site
					{
						OFFSET 0.000000 3.130435 0.000000 
					}
				}
			}
			JOINT lCollar
			{
				OFFSET 3.470700 6.669187 -0.816635 
				CHANNELS 3 Yrotation Zrotation Xrotation
				JOINT lShldr
				{
					OFFSET 3.198488 0.000000 0.000000 
					CHANNELS 3 Zrotation Yrotation Xrotation
					JOINT lForeArm
					{
						OFFSET 10.139888 0.000000 0.000000 
						CHANNELS 3 Yrotation Zrotation Xrotation
						JOINT lHand
						{
							OFFSET 8.370511 0.000000 0.000000 
							CHANNELS 3 Zrotation Yrotation Xrotation
							End Site
							{
								OFFSET 4.083176 0.000000 0.000000 
							}
						}
					}
				}
			}
			JOINT rCollar
			{
				OFFSET -3.470700 6.669187 -0.816635 
				CHANNELS 3 Yrotation Zrotation Xrotation
				JOINT rShldr
				{
					OFFSET -3.198488 0.000000 0.000000 
					CHANNELS 3 Zrotation Yrotation Xrotation
					JOINT rForeArm
					{
						OFFSET -10.139888 0.000000 0.000000 
						CHANNELS 3 Yrotation Zrotation Xrotation
						JOINT rHand
						{
							OFFSET -8.370511 0.000000 0.000000 
							CHANNELS 3 Zrotation Yrotation Xrotation
							End Site
							{
								OFFSET -4.083176 0.000000 0.000000 
							}
						}
					}
				}
			}
		}
	}
	JOINT lThigh
	{
		OFFSET 5.308129 -1.633274 1.361059 
		CHANNELS 3 Xrotation Zrotation Yrotation
		JOINT lShin
		{
			OFFSET -2.041588 -20.007561 0.000000 
			CHANNELS 3 Xrotation Zrotation Yrotation
			JOINT lFoot
			{
				OFFSET 0.000000 -19.190928 -1.224953 
				CHANNELS 3 Xrotation Yrotation Zrotation
				End Site
				{
					OFFSET 0.000000 -2.449906 4.627600 
				}
			}
		}
	}
	JOINT rThigh
	{
		OFFSET -5.308129 -1.633274 1.361059 
		CHANNELS 3 Xrotation Zrotation Yrotation
		JOINT rShin
		{
			OFFSET 2.041588 -20.007561 0.000000 
			CHANNELS 3 Xrotation Zrotation Yrotation
			JOINT rFoot
			{
				OFFSET 0.000000 -19.190928 -1.224953 
				CHANNELS 3 Xrotation Yrotation Zrotation
				End Site
				{
					OFFSET 0.000000 -2.449906 4.627600 
				}
			}
		}
	}
}
MOTION
Frames: 13
Frame Time: 0.016667
59.451534 57.072514 -58.899426 18.335649 10.878416 -135.075043 32.517174 7.952807 3.648743 -32.815365 5.848382 -1.177716 -1.949586 3.455824 1.516805 21.430708 3.045994 1.379159 30.928026 0.385061 -0.041950 88.563080 -40.678253 -147.466003 -62.837234 -3.896571 -52.648540 -16.360193 12.798573 -3.828844 -10.556619 0.024228 -0.182410 -62.607952 45.616745 -128.201675 66.083183 -1.009947 9.128942 -15.252034 9.458526 -2.743675 -1.081439 19.462723 -8.631333 23.430382 -1.394351 -2.254067 22.133202 39.913181 -25.269201 -113.492317 -54.034355 77.121056 49.392933 -0.523614 3.330917 13.901239 -32.910835 18.686367 
59.612904 57.016361 -59.048027 19.638796 11.169905 -131.887817 31.979605 8.171315 4.232901 -32.727200 6.288547 -0.736572 -1.957633 4.256324 1.518194 21.344114 2.694534 1.378644 31.367798 0.579652 -0.058464 86.576622 -40.310268 -146.696777 -63.964737 -3.804210 -52.204697 -16.343330 10.433257 -3.098624 -11.084990 -0.535988 -0.105413 -62.469894 45.458260 -129.168106 66.918083 -1.076900 9.840343 -15.943851 9.153191 -2.741093 -1.883459 21.507881 -6.841014 24.678158 -1.202105 -2.358445 21.454067 38.580818 -24.589172 -109.995651 -56.954208 77.081871 49.303974 -0.601630 3.303041 14.718981 -32.638409 18.967167 
59.774296 56.958519 -59.195957 20.960617 11.389186 -128.688980 31.446590 8.388657 4.818522 -32.641987 6.728427 -0.294383 -1.966758 5.047084 1.510102 21.257923 2.343063 1.387955 31.807804 0.778607 -0.083116 84.612091 -39.917164 -145.945480 -65.093536 -3.725582 -51.760754 -16.339985 8.079852 -2.369422 -11.612238 -1.083922 -0.047820 -62.321419 45.295479 -130.124023 67.749336 -1.123797 10.550904 -16.624496 8.861973 -2.723509 -2.635815 23.561838 -5.050051 25.894817 -0.977438 -2.459950 20.840633 37.213837 -23.947771 -106.176331 -59.854595 76.660378 49.215023 -0.669941 3.279531 15.518446 -32.352829 19.250639 
59.939877 56.698849 -59.264069 22.169262 11.759119 -125.773834 31.081156 8.450812 5.282537 -32.913704 7.255857 0.049670 -2.501231 5.944990 1.590715 21.873642 1.464359 1.475126 32.335026 0.885948 -0.066154 83.399025 -39.882561 -145.573746 -66.214325 -3.792285 -51.801487 -14.897551 6.592910 -1.849238 -11.788650 -1.530999 -0.057338 -62.781754 45.465485 -131.153641 67.927628 -1.122116 10.629201 -16.971262 8.667636 -2.722658 -3.709007 25.138084 -3.169398 26.506105 -0.977658 -2.596679 20.091999 36.285179 -23.310955 -100.180611 -62.491081 73.353569 49.047653 -0.501046 3.171949 16.580622 -31.252268 19.614655 
60.105797 56.437809 -59.331856 23.394226 12.067381 -122.842728 30.716782 8.512320 5.747983 -33.180367 7.783031 0.385286 -3.045255 6.842883 1.653369 22.496447 0.585720 1.562618 32.862061 1.008661 -0.041180 82.186775 -39.844364 -145.197617 -67.338707 -3.864525 -51.828373 -13.476098 5.104683 -1.370601 -11.955442 -1.978028 -0.066837 -63.252552 45.637997 -132.203629 68.105927 -1.128914 10.702375 -17.308002 8.474097 -2.719589 -4.753797 26.749151 -1.313190 27.128572 -0.977540 -2.694889 19.299307 35.353523 -22.678553 -93.293823 -64.932213 69.119232 48.878986 -0.354004 3.073660 17.591534 -30.150333 19.959856 
60.310024 56.015781 -59.361351 24.517048 12.516762 -119.811562 30.350645 8.537283 6.024160 -33.532944 8.212500 0.563487 -4.200196 7.730874 1.734652 23.465593 -0.380701 1.650419 33.302078 0.883883 -0.081761 81.509880 -39.943352 -145.111588 -68.159348 -3.774200 -51.716690 -11.323503 4.338198 -1.016347 -11.870701 -2.325398 -0.133686 -64.190460 45.961121 -133.387192 67.901382 -1.114222 10.229267 -17.481543 8.289252 -2.720934 -6.267807 27.885241 0.322586 27.213654 -1.148932 -2.387015 17.135820 35.629681 -21.355137 -83.488167 -66.611595 61.242031 48.982166 -0.548823 3.061514 18.336737 -28.192944 19.975065 
60.514671 55.592945 -59.391178 25.656664 12.905995 -116.769936 29.993069 8.562183 6.292128 -33.884178 8.651650 0.732061 -5.355206 8.628629 1.798244 24.422234 -1.347043 1.728956 33.741825 0.763905 -0.113810 80.826950 -40.042858 -145.004868 -68.972183 -3.690446 -51.602142 -9.175616 3.558201 -0.692470 -11.776991 -2.663238 -0.200548 -65.141457 46.268120 -134.574860 67.687309 -1.089719 9.760167 -17.645065 8.104945 -2.718429 -7.762838 29.069063 1.918105 27.298006 -1.338806 -2.054388 14.921784 35.908421 -19.963629 -72.592369 -67.694336 52.260731 49.074215 -0.749561 3.065162 19.073484 -26.256285 19.960155 
60.769524 55.074875 -59.462193 26.769770 13.267334 -113.335335 29.803261 8.387929 6.258826 -34.332596 9.179137 0.634132 -6.690478 9.428497 1.900854 25.042877 -1.864118 1.983278 34.004829 0.564924 -0.089144 80.176468 -40.314522 -144.692810 -69.302307 -3.693642 -51.179401 -7.130867 2.644230 -0.419069 -11.334363 -2.855916 -0.124324 -66.310692 46.695683 -135.574295 67.454979 -0.983349 8.932652 -17.807133 7.923704 -2.707087 -9.939787 29.809233 3.070481 27.470669 -1.338771 -2.150732 11.252625 36.138542 -17.757397 -59.572281 -67.889450 40.659119 49.505955 -0.815459 3.226785 20.256437 -23.979176 19.863338 
61.024658 54.556633 -59.534000 27.906132 13.560345 -109.875916 29.622015 8.213805 6.217344 -34.773075 9.706615 0.536259 -8.028108 10.228425 1.974891 25.658537 -2.390755 2.238047 34.258251 0.366178 -0.064632 79.516937 -40.593529 -144.359726 -69.633659 -3.706749 -50.743584 -5.100842 1.719072 -0.182729 -10.891220 -3.037650 -0.047881 -67.488533 47.109570 -136.572327 67.224190 -0.864415 8.108214 -17.980665 7.748413 -2.708221 -12.137253 30.591482 4.192254 27.653095 -1.338908 -2.247887 7.505559 36.246094 -15.518552 -46.848816 -67.123634 29.355986 49.927937 -0.878469 3.388846 21.423302 -21.706850 19.684387 
61.313061 54.021446 -59.697102 29.028841 13.840355 -105.628647 29.524702 7.895881 6.044737 -35.300159 10.146301 0.348493 -9.525469 10.677685 1.928664 25.839003 -2.478106 2.502305 34.091908 0.183183 -0.032380 78.779823 -41.088627 -143.810760 -69.541710 -3.661296 -50.024712 -3.427893 0.142719 -0.067247 -10.364029 -3.213873 -0.047956 -68.861984 47.591686 -137.240479 67.013626 -0.857367 7.519742 -18.305666 7.583597 -2.611250 -15.370263 31.305855 4.244247 28.267193 -1.304586 -2.349792 3.152383 34.889404 -13.012789 -34.277443 -65.102036 17.771315 51.175972 -0.718198 3.332634 22.538826 -19.202658 19.343885 
61.601551 53.486561 -59.861187 30.176786 14.042663 -101.370659 29.438087 7.567974 5.872330 -35.832001 10.585903 0.149373 -11.035912 11.107503 1.871144 26.008892 -2.565370 2.766145 33.916016 -0.009766 0.000000 78.037239 -41.602509 -143.240494 -69.457077 -3.621235 -49.303490 -1.757141 -1.436369 -0.005004 -9.837408 -3.388428 -0.057632 -70.253899 48.056332 -137.910904 66.800064 -0.858178 6.931531 -18.640574 7.410481 -2.510612 -18.630943 32.017704 4.248857 28.882219 -1.260823 -2.429712 -1.071169 33.362228 -10.668052 -23.832771 -62.191269 8.325038 52.424843 -0.525160 3.267639 23.670330 -16.741629 18.934578 
61.901375 52.987030 -60.140579 31.067280 14.126412 -96.510323 29.430147 7.018064 5.549941 -36.455494 10.839840 0.049794 -12.708416 11.449854 1.754324 26.103188 -2.477203 2.942191 33.291077 -0.213889 0.016362 77.257072 -42.728218 -142.557388 -68.892532 -3.572443 -48.285622 0.004235 -3.544919 -0.068831 -9.311499 -3.198673 -0.086598 -72.004227 48.947357 -138.269104 66.613472 -0.831196 6.650892 -18.804003 7.227334 -2.503352 -22.634493 32.399147 3.208184 29.854500 -1.173183 -2.400183 -4.784564 29.854702 -8.909002 -15.204119 -58.189381 -0.461811 54.180511 -0.613106 3.296470 24.666603 -14.490260 18.168951 
62.201130 52.487892 -60.420834 31.943850 14.134470 -91.647850 29.419794 6.467246 5.238960 -37.070122 11.093747 -0.047916 -14.396477 11.782552 1.616489 26.188261 -2.389040 3.117816 32.676022 -0.408598 0.032949 76.450974 -43.860939 -141.831207 -68.326706 -3.504086 -47.267334 1.779112 -5.650689 -0.205188 -8.795170 -3.009432 -0.115651 -73.800568 49.852512 -138.674759 66.419884 -0.784768 6.373118 -18.968451 7.041117 -2.504225 -26.676294 32.710720 2.113119 30.837830 -1.085208 -2.321000 -8.231757 26.208376 -7.472847 -8.604453 -53.651863 -7.207225 55.945919 -0.700082 3.324063 25.680315 -12.259143 17.370687 
